<svg width="23" height="21" viewBox="0 0 23 21" fill="none" xmlns="http://www.w3.org/2000/svg">
<path fill-rule="evenodd" clip-rule="evenodd" d="M11.9293 0.000546408C11.7308 0.0108002 11.5585 0.141301 11.4967 0.329596L9.09038 7.51742H1.38356V7.51835C1.17664 7.51835 0.993116 7.65072 0.929452 7.84647C0.864846 8.04222 0.934134 8.25663 1.09986 8.37967L7.3601 12.9371L4.95375 20.3757V20.3748C4.88915 20.5724 4.96031 20.7877 5.12885 20.9089C5.29738 21.031 5.5249 21.0301 5.69252 20.9079L11.9528 16.3506L18.213 20.9079C18.3806 21.0301 18.6081 21.031 18.7767 20.9089C18.9452 20.7877 19.0164 20.5724 18.9518 20.3748L16.5454 12.9361L22.8057 8.37874V8.37967C22.9714 8.25663 23.0407 8.04222 22.9761 7.84647C22.9124 7.65072 22.7289 7.51835 22.522 7.51835H14.8151L12.4088 0.330528V0.329596C12.3423 0.125453 12.1457 -0.00971475 11.9294 0.000546408H11.9293Z" fill="#C4C4C4"/>
</svg>
