<svg width="23" height="21" viewBox="0 0 23 21" fill="none" xmlns="http://www.w3.org/2000/svg">
<path fill-rule="evenodd" clip-rule="evenodd" d="M11.0238 0.000546408C10.8253 0.0108002 10.653 0.141301 10.5912 0.329596L8.18487 7.51742H0.478046V7.51835C0.271118 7.51835 0.0875989 7.65072 0.0239347 7.84647C-0.0406715 8.04222 0.0286164 8.25663 0.194347 8.37967L6.45458 12.9371L4.04824 20.3757V20.3748C3.98363 20.5724 4.05479 20.7877 4.22333 20.9089C4.39187 21.031 4.61939 21.0301 4.78701 20.9079L11.0472 16.3506L17.3075 20.9079C17.4751 21.0301 17.7026 21.031 17.8712 20.9089C18.0397 20.7877 18.1109 20.5724 18.0463 20.3748L15.6399 12.9361L21.9001 8.37874V8.37967C22.0659 8.25663 22.1352 8.04222 22.0706 7.84647C22.0069 7.65072 21.8234 7.51835 21.6164 7.51835H13.9096L11.5033 0.330528V0.329596C11.4368 0.125453 11.2402 -0.00971475 11.0239 0.000546408H11.0238Z" fill="#FF9900"/>
</svg>
