<svg width="86" height="83" viewBox="0 0 86 83" fill="none" xmlns="http://www.w3.org/2000/svg">
<path d="M83.8585 2.06602C82.4153 0.739752 80.4988 0 78.506 0C76.5132 0 74.5967 0.739752 73.1535 2.06602L53.5269 21.0083L7.13732 10.6766L0.000995728 17.564L37.4689 36.5061L17.8423 55.4484L5.35199 53.7262L0 58.8925L16.058 67.5021L24.9786 83L30.3316 77.8338L28.5473 65.78L48.1739 46.8378L67.8005 83L74.9378 76.1116L64.2328 31.3399L83.8595 12.3977C85.2337 11.0048 86.0002 9.15505 86 7.23167C85.9998 5.30829 85.233 3.45867 83.8585 2.06602Z" fill="white"/>
</svg>
