<svg xmlns="http://www.w3.org/2000/svg" data-name="Layer 1" viewBox="0 0 100 125" x="0px" y="0px"><title>animals</title><path d="M77.67,32.74l4-12.27-5-6.63h-7l-6.06,5.81H35.53l-6.06-5.81h-7l-5,6.63,4,12.27L11.16,55l15,27.48,23.65,2.27L73,82.48,88,55Zm7.88,21.78L75.29,59.89l2-23.25Zm-36,16h0l-4.83-2.68V65.91H54.4v1.93Zm1.11,1.67L56.4,69V63.91H42.74V69l5.72,3.17v1H39.92V52.6l9.64-5,9.64,5V73.16H50.67v-1ZM26,61.19l-2.39-28L35.23,22l13.29,9.46h0l0,14.47-6.5,3.34L36.8,44.82,33,47.38,35.83,50,40.65,50l-2.72,1.4V74.06ZM50,29.42H49.16l-10.9-7.76H60.88ZM58.49,50L63.31,50l2.85-2.66-3.83-2.56-5.28,4.42-6.47-3.33,0-14.49h0.06L63.91,22,75.56,33.2l-2.39,28-12,12.87V51.38Zm12-34.13h5.17l3.81,5L76.14,31,65.45,20.67Zm-50.79,5,3.81-5h5.17l5,4.82L23,31Zm2.18,15.79,2,23.25L13.58,54.52ZM14.73,57.38l9.66,5.05L42.63,82.06,27.36,80.6Zm35,25.37-4.13-.4-5.7-6.14v-2.8l9.62,5.27,9.66-5.27v2.8l-5.73,6.17Zm22-2.15-15.3,1.49L74.75,62.43l9.66-5.05Z"/><text x="0" y="115" fill="#000000" font-size="5px" font-weight="bold" font-family="'Helvetica Neue', Helvetica, Arial-Unicode, Arial, Sans-serif">Created by Erica Grau</text><text x="0" y="120" fill="#000000" font-size="5px" font-weight="bold" font-family="'Helvetica Neue', Helvetica, Arial-Unicode, Arial, Sans-serif">from the Noun Project</text></svg>